<svg width="42" height="44" viewBox="0 0 42 44" fill="none" xmlns="http://www.w3.org/2000/svg">
<path d="M41.6398 39.2318L29.9879 27.2271C32.3744 23.8075 33.5677 19.4422 32.936 14.7858C31.8831 7.00088 25.7763 0.816613 18.1254 0.0890519C7.80709 -1.00229 -0.96696 8.09222 0.0859255 18.8601C0.787849 26.645 6.7542 33.1203 14.2648 34.2117C18.7571 34.8665 22.8985 33.5569 26.2677 31.1559L37.9196 43.2334C38.411 43.7427 39.2533 43.7427 39.7446 43.2334L41.5696 41.3418C42.1312 40.687 42.1312 39.8139 41.6398 39.2318ZM5.28016 17.114C5.28016 10.7114 10.334 5.40025 16.5811 5.40025C22.8283 5.40025 27.8821 10.6387 27.8821 17.114C27.8821 23.5893 22.8283 28.8277 16.5811 28.8277C10.334 28.8277 5.28016 23.662 5.28016 17.114Z" fill="black"/>
</svg>
