<svg width="33" height="32" viewBox="0 0 33 32" fill="none" xmlns="http://www.w3.org/2000/svg">
<g clip-path="url(#clip0_14_426)">
<path d="M32.498 7.896C32.498 7.64156 32.397 7.3975 32.217 7.21756L29.4272 4.42775L30.4314 3.42356C30.806 3.04887 30.806 2.44138 30.4314 2.06669C30.0567 1.69206 29.4492 1.692 29.0745 2.06669L28.0703 3.07087L25.2805 0.281062C25.1006 0.101125 24.8566 0 24.602 0C24.3475 0 24.1035 0.101125 23.9236 0.281062L21.5802 2.62444L20.473 1.51725C20.2931 1.33731 20.0491 1.23619 19.7946 1.23619C19.5401 1.23619 19.296 1.33731 19.1162 1.51725L16.0944 4.53906C15.7197 4.91375 15.7197 5.52125 16.0944 5.89594L20.6698 10.4714L10.9695 20.1717L6.39411 15.5962C6.01948 15.2215 5.41192 15.2216 5.03723 15.5962L2.01536 18.6181C1.83542 18.798 1.7343 19.042 1.7343 19.2965C1.7343 19.5509 1.83536 19.795 2.01536 19.9749L3.12261 21.0822L0.779109 23.4256C0.599109 23.6056 0.498047 23.8496 0.498047 24.1041C0.498047 24.3585 0.599109 24.6026 0.779109 24.7825L3.56892 27.5723L2.56473 28.5764C2.19005 28.9511 2.19005 29.5586 2.56473 29.9333C2.75211 30.1207 2.99767 30.2143 3.24317 30.2143C3.48867 30.2143 3.7343 30.1207 3.92161 29.9332L4.9258 28.9291L7.71561 31.7189C7.89555 31.8988 8.13955 31.9999 8.39405 31.9999C8.64855 31.9999 8.89261 31.8988 9.07248 31.7189L11.4159 29.3755L12.523 30.4827C12.703 30.6626 12.947 30.7637 13.2015 30.7637C13.4559 30.7637 13.7 30.6626 13.8799 30.4827L16.9017 27.4609C17.2764 27.0862 17.2764 26.4787 16.9017 26.104L12.3263 21.5286L22.0266 11.8282L26.602 16.4037C26.7894 16.5911 27.035 16.6847 27.2805 16.6847C27.526 16.6847 27.7716 16.5911 27.9589 16.4037L30.9807 13.3819C31.1607 13.2019 31.2618 12.9579 31.2618 12.7034C31.2618 12.4489 31.1607 12.2049 30.9807 12.025L29.8735 10.9177L32.2168 8.57437C32.397 8.39444 32.498 8.15044 32.498 7.896ZM8.39405 29.6836L2.81442 24.104L4.47936 22.4391L10.059 28.0187L8.39405 29.6836ZM14.8665 26.7825L13.2015 28.4474L4.05061 19.2966L5.71555 17.6317L14.8665 26.7825ZM27.2805 14.3684L18.1297 5.2175L19.7946 3.55256L28.9455 12.7035L27.2805 14.3684ZM28.5167 9.56094L22.9371 3.98131L24.602 2.31644L30.1816 7.89606L28.5167 9.56094Z" fill="#181D24"/>
</g>
<defs>
<clipPath id="clip0_14_426">
<rect width="32" height="32" fill="white" transform="translate(0.5)"/>
</clipPath>
</defs>
</svg>
