<svg width="20" height="20" viewBox="0 0 20 20" fill="none" xmlns="http://www.w3.org/2000/svg">
<path d="M17.3096 16.2743C17.3096 16.5743 17.243 16.8827 17.1013 17.1827C16.9596 17.4827 16.7763 17.766 16.5346 18.0327C16.1263 18.4827 15.6763 18.8077 15.168 19.016C14.668 19.2244 14.1263 19.3327 13.543 19.3327C12.693 19.3327 11.7846 19.1327 10.8263 18.7244C9.86797 18.316 8.90964 17.766 7.95964 17.0744C7.0013 16.3744 6.09297 15.5993 5.2263 14.741C4.36797 13.8743 3.59297 12.966 2.9013 12.016C2.21797 11.066 1.66797 10.116 1.26797 9.17435C0.867969 8.22435 0.667969 7.31602 0.667969 6.44935C0.667969 5.88268 0.767969 5.34102 0.967969 4.84102C1.16797 4.33268 1.48464 3.86602 1.9263 3.44935C2.45964 2.92435 3.04297 2.66602 3.65964 2.66602C3.89297 2.66602 4.1263 2.71602 4.33464 2.81602C4.5513 2.91602 4.74297 3.06602 4.89297 3.28268L6.8263 6.00768C6.9763 6.21602 7.08464 6.40768 7.15964 6.59102C7.23464 6.76602 7.2763 6.94102 7.2763 7.09935C7.2763 7.29935 7.21797 7.49935 7.1013 7.69102C6.99297 7.88268 6.83464 8.08268 6.63464 8.28268L6.0013 8.94102C5.90964 9.03268 5.86797 9.14102 5.86797 9.27435C5.86797 9.34102 5.8763 9.39935 5.89297 9.46602C5.91797 9.53268 5.94297 9.58268 5.95964 9.63268C6.10964 9.90768 6.36797 10.266 6.73464 10.6993C7.10964 11.1327 7.50964 11.5743 7.94297 12.016C8.39297 12.4577 8.8263 12.866 9.26797 13.241C9.7013 13.6077 10.0596 13.8577 10.343 14.0077C10.3846 14.0243 10.4346 14.0493 10.493 14.0743C10.5596 14.0993 10.6263 14.1077 10.7013 14.1077C10.843 14.1077 10.9513 14.0577 11.043 13.966L11.6763 13.341C11.8846 13.1327 12.0846 12.9743 12.2763 12.8743C12.468 12.7577 12.6596 12.6993 12.868 12.6993C13.0263 12.6993 13.193 12.7327 13.3763 12.8077C13.5596 12.8827 13.7513 12.991 13.9596 13.1327L16.718 15.091C16.9346 15.241 17.0846 15.416 17.1763 15.6243C17.2596 15.8327 17.3096 16.041 17.3096 16.2743Z" stroke="white" stroke-width="1.2" stroke-miterlimit="10"/>
<path d="M14.4167 8.4987C14.4167 7.9987 14.025 7.23203 13.4417 6.60703C12.9083 6.03203 12.2 5.58203 11.5 5.58203" stroke="white" stroke-width="1.2" stroke-linecap="round" stroke-linejoin="round"/>
<path d="M17.3333 8.49935C17.3333 5.27435 14.725 2.66602 11.5 2.66602" stroke="white" stroke-width="1.2" stroke-linecap="round" stroke-linejoin="round"/>
</svg>
