<svg width="33" height="32" viewBox="0 0 33 32" fill="none" xmlns="http://www.w3.org/2000/svg">
<g clip-path="url(#clip0_14_416)">
<path d="M3.44604 6.89593H16.6401C17.0834 9.71681 19.5272 11.9167 22.5252 11.9167H25.5377C26.0554 11.9167 26.4752 11.497 26.4752 10.9792V9.90843H31.5627C32.0804 9.90843 32.5002 9.48868 32.5002 8.97093C32.5002 8.45319 32.0804 8.03343 31.5627 8.03343H26.4752V3.88343H31.5627C32.0804 3.88343 32.5002 3.46368 32.5002 2.94593C32.5002 2.42818 32.0804 2.00843 31.5627 2.00843H26.4752V0.937622C26.4752 0.419872 26.0554 0.00012207 25.5377 0.00012207H22.5252C19.5294 0.00012207 17.0837 2.19806 16.6401 5.02093H3.44604C1.83217 5.02093 0.500168 6.32525 0.500168 7.96681V21.021C0.500168 22.668 1.83792 23.9668 3.44604 23.9668H4.51686V28.0501C4.51686 28.5679 4.93661 28.9876 5.45436 28.9876H7.64273C8.06479 30.7144 9.62436 32.0001 11.4794 32.0001C13.3345 32.0001 14.894 30.7144 15.316 28.9876H20.6969C21.119 30.7144 22.6786 32.0001 24.5336 32.0001C26.3886 32.0001 27.9482 30.7144 28.3703 28.9876H31.5627C32.0804 28.9876 32.5002 28.5679 32.5002 28.0501V25.5397C32.5002 22.5311 30.0525 20.0834 27.0439 20.0834H26.9302L23.3603 16.5136C22.4246 15.5779 21.1805 15.0626 19.8571 15.0626H7.46267C5.84879 15.0626 4.51679 16.3669 4.51679 18.0084V22.0917H3.44604C2.86111 22.0918 2.37517 21.6189 2.37517 21.0209V7.96681C2.37517 7.38343 2.84679 6.89593 3.44604 6.89593ZM22.5252 1.87512H24.6002V10.0418H22.5252C20.2345 10.0418 18.4418 8.17681 18.4418 5.9585C18.4418 3.70325 20.2666 1.87512 22.5252 1.87512ZM11.4794 30.1251C10.3352 30.1251 9.40436 29.1942 9.40436 28.0501C9.40436 26.906 10.3352 25.9751 11.4794 25.9751C12.6235 25.9751 13.5543 26.9059 13.5543 28.0501C13.5543 29.1943 12.6235 30.1251 11.4794 30.1251ZM24.5335 30.1251C23.3893 30.1251 22.4585 29.1942 22.4585 28.0501C22.4585 26.906 23.3894 25.9751 24.5335 25.9751C25.6776 25.9751 26.6085 26.9059 26.6085 28.0501C26.6085 29.1943 25.6777 30.1251 24.5335 30.1251ZM16.4335 16.9376H19.8571C20.6797 16.9376 21.4529 17.2579 22.0345 17.8394L24.2785 20.0834H16.4335V16.9376ZM6.39186 18.0084C6.39186 17.4251 6.86348 16.9376 7.46273 16.9376H14.5585V20.0834H6.39186V18.0084ZM6.39186 21.9584H27.0439C29.0187 21.9584 30.6252 23.565 30.6252 25.5397V27.1126H28.3713C27.9497 25.3857 26.3892 24.1001 24.5335 24.1001C22.6783 24.1001 21.1179 25.3856 20.6959 27.1126H15.3169C14.895 25.3856 13.3344 24.1001 11.4784 24.1001C9.62367 24.1001 8.06354 25.3854 7.64167 27.1126H6.39186V21.9584Z" fill="#181D24"/>
</g>
<defs>
<clipPath id="clip0_14_416">
<rect width="32" height="32" fill="white" transform="translate(0.5)"/>
</clipPath>
</defs>
</svg>
