<svg width="20" height="20" viewBox="0 0 20 20" fill="none" xmlns="http://www.w3.org/2000/svg">
<path d="M15.4154 3.99219C13.2487 7.78385 9.0737 9.95885 4.7237 9.56719L2.08203 9.32552" stroke="#181D24" stroke-miterlimit="10" stroke-linecap="round" stroke-linejoin="round"/>
<path d="M4.58203 16.1417C6.7487 12.3501 10.9237 10.1751 15.2737 10.5667L17.9154 10.8084" stroke="#181D24" stroke-miterlimit="10" stroke-linecap="round" stroke-linejoin="round"/>
<path d="M10.0013 18.3327C14.6037 18.3327 18.3346 14.6017 18.3346 9.99935C18.3346 5.39698 14.6037 1.66602 10.0013 1.66602C5.39893 1.66602 1.66797 5.39698 1.66797 9.99935C1.66797 14.6017 5.39893 18.3327 10.0013 18.3327Z" stroke="#181D24" stroke-miterlimit="10" stroke-linecap="round" stroke-linejoin="round"/>
<path d="M6.35742 2.5L9.00742 5.79167C10.7824 7.99167 12.0408 10.55 12.7074 13.2917L13.7158 17.45" stroke="#181D24" stroke-miterlimit="10" stroke-linecap="round" stroke-linejoin="round"/>
</svg>
