<svg width="20" height="20" viewBox="0 0 20 20" fill="none" xmlns="http://www.w3.org/2000/svg">
<path d="M10.0013 1.66602H7.2513C5.66797 1.66602 4.41797 2.91602 4.41797 4.41602C4.41797 5.91602 5.66797 7.16602 7.16797 7.16602H10.0013V1.66602Z" stroke="#181D24" stroke-miterlimit="10"/>
<path d="M10 7.25H7.25C5.75 7.25 4.5 8.5 4.5 10C4.5 11.5 5.75 12.75 7.25 12.75H10V7.25Z" stroke="#181D24" stroke-miterlimit="10"/>
<path d="M10 12.75H7.25C5.75 12.75 4.5 14 4.5 15.5C4.5 17 5.75 18.25 7.25 18.25C8.75 18.25 10 17 10 15.5V12.75Z" stroke="#181D24" stroke-miterlimit="10"/>
<path d="M10 1.66602H12.75C14.25 1.66602 15.5 2.91602 15.5 4.41602C15.5 5.91602 14.25 7.16602 12.75 7.16602H10V1.66602Z" stroke="#181D24" stroke-miterlimit="10"/>
<path d="M12.75 7.25C14.25 7.25 15.5 8.5 15.5 10C15.5 11.5 14.25 12.75 12.75 12.75C11.25 12.75 10 11.5 10 10C10 8.5 11.25 7.25 12.75 7.25Z" stroke="#181D24" stroke-miterlimit="10"/>
</svg>
