<svg width="35" height="35" viewBox="0 0 35 35" fill="none" xmlns="http://www.w3.org/2000/svg">
<path d="M10.0648 30.0405C12.2523 31.353 14.8773 32.0822 17.5023 32.0822C25.5231 32.0822 32.0856 25.5197 32.0856 17.4989C32.0856 9.47803 25.5231 2.91553 17.5023 2.91553C9.48145 2.91553 2.91895 9.47803 2.91895 17.4989C2.91895 20.1239 3.64811 22.603 4.81478 24.7905L3.57961 29.5412C3.28753 30.6646 4.32733 31.6798 5.44343 31.3609L10.0648 30.0405Z" stroke="#181D24" stroke-width="1.5" stroke-miterlimit="10" stroke-linecap="round" stroke-linejoin="round"/>
<path d="M24.0625 21.6541C24.0625 21.8903 24.0099 22.1331 23.8982 22.3694C23.7865 22.6056 23.6419 22.8288 23.4513 23.0388C23.1292 23.3931 22.7743 23.6491 22.3734 23.8131C21.9791 23.9772 21.5519 24.0625 21.0918 24.0625C20.4214 24.0625 19.705 23.905 18.9492 23.5834C18.1934 23.2619 17.4376 22.8288 16.6883 22.2841C15.9325 21.7328 15.2161 21.1225 14.5326 20.4466C13.8556 19.7641 13.2444 19.0488 12.6989 18.3006C12.16 17.5525 11.7262 16.8044 11.4107 16.0628C11.0952 15.3147 10.9375 14.5994 10.9375 13.9169C10.9375 13.4706 11.0164 13.0441 11.1741 12.6503C11.3318 12.25 11.5816 11.8825 11.9299 11.5544C12.3506 11.1409 12.8106 10.9375 13.297 10.9375C13.481 10.9375 13.665 10.9769 13.8293 11.0556C14.0002 11.1344 14.1514 11.2525 14.2697 11.4231L15.7945 13.5691C15.9128 13.7331 15.9982 13.8841 16.0574 14.0284C16.1165 14.1663 16.1494 14.3041 16.1494 14.4288C16.1494 14.5863 16.1034 14.7437 16.0114 14.8947C15.9259 15.0456 15.801 15.2031 15.6433 15.3606L15.1438 15.8791C15.0715 15.9512 15.0387 16.0366 15.0387 16.1416C15.0387 16.1941 15.0452 16.24 15.0584 16.2925C15.0781 16.345 15.0978 16.3844 15.1109 16.4237C15.2293 16.6403 15.433 16.9225 15.7222 17.2638C16.0179 17.605 16.3334 17.9528 16.6752 18.3006C17.0301 18.6484 17.3718 18.97 17.7202 19.2653C18.0619 19.5541 18.3445 19.7509 18.568 19.8691C18.6009 19.8822 18.6403 19.9019 18.6863 19.9216C18.7389 19.9412 18.7915 19.9478 18.8506 19.9478C18.9623 19.9478 19.0478 19.9084 19.1201 19.8363L19.6196 19.3441C19.7839 19.18 19.9416 19.0553 20.0928 18.9766C20.244 18.8847 20.3951 18.8387 20.5594 18.8387C20.6843 18.8387 20.8158 18.865 20.9603 18.9241C21.1049 18.9831 21.2561 19.0684 21.4204 19.18L23.5959 20.7222C23.7667 20.8403 23.885 20.9781 23.9573 21.1422C24.0231 21.3062 24.0625 21.4703 24.0625 21.6541Z" stroke="#181D24" stroke-width="1.5" stroke-miterlimit="10"/>
</svg>
