<svg width="20" height="20" viewBox="0 0 20 20" fill="none" xmlns="http://www.w3.org/2000/svg">
<path d="M11.6667 7.75V10.1667H13.8333C14 10.1667 14.0833 10.3333 14.0833 10.5L13.75 12.0833C13.75 12.1667 13.5833 12.25 13.5 12.25H11.6667V18.3333H9.16667V12.3333H7.75C7.58333 12.3333 7.5 12.25 7.5 12.0833V10.5C7.5 10.3333 7.58333 10.25 7.75 10.25H9.16667V7.5C9.16667 6.08333 10.25 5 11.6667 5H13.9167C14.0833 5 14.1667 5.08333 14.1667 5.25V7.25C14.1667 7.41667 14.0833 7.5 13.9167 7.5H11.9167C11.75 7.5 11.6667 7.58333 11.6667 7.75Z" stroke="#181D24" stroke-miterlimit="10" stroke-linecap="round"/>
<path d="M12.5013 18.3327H7.5013C3.33464 18.3327 1.66797 16.666 1.66797 12.4993V7.49935C1.66797 3.33268 3.33464 1.66602 7.5013 1.66602H12.5013C16.668 1.66602 18.3346 3.33268 18.3346 7.49935V12.4993C18.3346 16.666 16.668 18.3327 12.5013 18.3327Z" stroke="#181D24" stroke-linecap="round" stroke-linejoin="round"/>
</svg>
