<svg width="33" height="32" viewBox="0 0 33 32" fill="none" xmlns="http://www.w3.org/2000/svg">
<g clip-path="url(#clip0_14_437)">
<path d="M31.5625 18.075H25.5375C23.8396 18.075 22.4583 16.6937 22.4583 14.9958V7.9H23.5292C25.1558 7.9 26.475 6.58381 26.475 4.95419V2.94581C26.475 1.31956 25.1588 0 23.5292 0H9.47081C7.84338 0 6.525 1.31594 6.525 2.94581V4.95412C6.525 6.58156 7.84094 7.89994 9.47081 7.89994H10.5417V14.9967C10.5417 16.6941 9.16081 18.0749 7.4625 18.0749H1.4375C0.91975 18.0749 0.5 18.4947 0.5 19.0124V31.0625C0.5 31.5802 0.91975 32 1.4375 32H31.5625C32.0802 32 32.5 31.5802 32.5 31.0625V19.0125C32.5 18.4948 32.0802 18.075 31.5625 18.075ZM9.47081 6.025C8.88419 6.025 8.4 5.55125 8.4 4.95419V2.94581C8.4 2.34725 8.88581 1.875 9.47081 1.875H23.5292C24.1216 1.875 24.6 2.35494 24.6 2.94581V4.95412C24.6 5.544 24.1225 6.02494 23.5292 6.02494L9.47081 6.025ZM21.659 18.075H11.3415C12.0142 17.2292 12.4167 16.1591 12.4167 14.9968V7.9H20.5833V14.9958C20.5833 16.1584 20.9859 17.2289 21.659 18.075ZM30.625 30.125H2.375V25.1467C3.23813 25.6886 4.20019 25.9749 5.20262 25.975C6.58612 25.9751 7.89262 25.4299 8.96869 24.4202C10.0444 25.4297 11.3507 25.9749 12.7339 25.975C14.1174 25.9751 15.4239 25.4299 16.4999 24.4202C17.5756 25.4297 18.8819 25.9749 20.2651 25.975C21.6486 25.9751 22.9551 25.4299 24.0312 24.4202C25.1069 25.4297 26.4132 25.9749 27.7964 25.975C28.7991 25.9751 29.7615 25.6886 30.625 25.1465V30.125ZM30.625 22.692C28.9614 24.6575 26.3263 24.5278 24.7719 22.4544C24.4199 21.9759 23.6426 21.976 23.2907 22.4544C21.6558 24.6348 18.8755 24.6347 17.2406 22.4544C16.8881 21.976 16.1118 21.9759 15.7594 22.4544C14.1244 24.6348 11.3444 24.6348 9.70938 22.4544C9.53181 22.2256 9.25844 22.0917 8.96875 22.0917C8.67906 22.0917 8.40575 22.2256 8.22813 22.4544C6.67394 24.5279 4.03831 24.6575 2.375 22.692V19.95H30.625V22.692Z" fill="#181D24"/>
</g>
<defs>
<clipPath id="clip0_14_437">
<rect width="32" height="32" fill="white" transform="translate(0.5)"/>
</clipPath>
</defs>
</svg>
