<svg width="33" height="32" viewBox="0 0 33 32" fill="none" xmlns="http://www.w3.org/2000/svg">
<g clip-path="url(#clip0_14_403)">
<path d="M21.9015 16.9576C20.4615 14.7113 18.0091 13.37 15.3412 13.37C12.6735 13.37 10.2208 14.7113 8.78112 16.9576L5.3114 22.3705C4.73572 23.2687 4.47009 24.306 4.54309 25.3702C4.61609 26.4347 5.02112 27.4259 5.71423 28.2372C6.40783 29.0482 7.32434 29.6024 8.36462 29.8402C9.4049 30.0778 10.4713 29.9764 11.4484 29.547L11.5121 29.5187C13.9708 28.4589 16.7811 28.4684 19.2338 29.547C19.8663 29.8251 20.5365 29.9657 21.2128 29.9657C21.5804 29.9657 21.9503 29.9239 22.3168 29.8405C23.357 29.6029 24.2736 29.0487 24.9674 28.2377C25.6608 27.4266 26.066 26.4352 26.1393 25.3707C26.2125 24.306 25.9469 23.2687 25.3712 22.3702L21.9015 16.9576ZM23.5419 27.0184C22.6593 28.0502 21.2316 28.3763 19.9889 27.83C18.5118 27.1803 16.9264 26.8556 15.3404 26.8556C13.756 26.8556 12.1708 27.1801 10.6947 27.829L10.6527 27.8475C9.41955 28.369 8.01281 28.0387 7.14001 27.0184C6.25842 25.9864 6.15808 24.5255 6.8905 23.3827L10.3605 17.9698C11.4537 16.2643 13.3155 15.246 15.3412 15.246C17.3668 15.246 19.2289 16.2643 20.3224 17.9698L23.7919 23.3824C24.5245 24.5258 24.4239 25.9869 23.5419 27.0184Z" fill="#181D24"/>
<path d="M6.24343 16.9519C7.27566 16.5554 8.05984 15.7236 8.45169 14.6096C8.82424 13.5495 8.79373 12.3528 8.36526 11.2395C7.93655 10.1269 7.15676 9.21873 6.1697 8.68187C5.13235 8.11815 3.99295 8.02635 2.96243 8.42357C0.889186 9.22069 -0.0622296 11.7827 0.841823 14.136C1.56399 16.009 3.24832 17.1914 4.9512 17.1914C5.38601 17.1914 5.82205 17.1142 6.24343 16.9519ZM2.59231 13.4621C2.0596 12.0754 2.52761 10.6003 3.63626 10.1741C3.83645 10.0969 4.04812 10.0586 4.26419 10.0586C4.59768 10.0586 4.94216 10.1496 5.27371 10.3301C5.8699 10.654 6.34622 11.2165 6.61477 11.9136C6.88308 12.6111 6.90701 13.3474 6.68191 13.9873C6.47561 14.5737 6.08084 15.0049 5.57058 15.2009L5.56961 15.2014C4.46243 15.6282 3.12673 14.8476 2.59231 13.4621Z" fill="#181D24"/>
<path d="M12.9714 12.7117C15.5632 12.7117 17.6719 10.3093 17.6719 7.35644C17.6719 4.40283 15.5632 2 12.9714 2C10.3799 2 8.27148 4.40283 8.27148 7.35644C8.27148 10.3093 10.3799 12.7117 12.9714 12.7117ZM12.9714 3.87573C14.5288 3.87573 15.7961 5.43726 15.7961 7.35644C15.7961 9.2749 14.5288 10.8359 12.9714 10.8359C11.4141 10.8359 10.1472 9.2749 10.1472 7.35644C10.1472 5.43726 11.4141 3.87573 12.9714 3.87573Z" fill="#181D24"/>
<path d="M21.095 14.0271H21.0953C21.4939 14.1594 21.9007 14.2227 22.3057 14.2227C24.1959 14.2227 26.0379 12.8469 26.7408 10.7327C27.1456 9.51562 27.1189 8.22876 26.6658 7.10937C26.1917 5.93774 25.313 5.08716 24.1915 4.71411C23.0699 4.34155 21.8563 4.49682 20.775 5.15161C19.742 5.77734 18.9505 6.79199 18.5464 8.00903C17.6932 10.5764 18.8365 13.2761 21.095 14.0271ZM20.3265 8.60058C20.5904 7.80591 21.0948 7.15112 21.7469 6.7561C22.3501 6.39062 23.0084 6.29761 23.5999 6.49414C24.1912 6.69092 24.6624 7.15918 24.9271 7.81299C25.2129 8.51953 25.2251 9.34619 24.9607 10.1409C24.4336 11.7268 22.9649 12.6716 21.6868 12.2471C20.4097 11.8223 19.7994 10.1865 20.3265 8.60058Z" fill="#181D24"/>
<path d="M30.9931 13.4012L30.9924 13.4004C29.205 12.0801 26.5319 12.6524 25.0332 14.6768C23.5358 16.7022 23.77 19.4251 25.5546 20.7464C26.2055 21.2286 26.9746 21.459 27.7617 21.459C29.1335 21.459 30.5607 20.7588 31.5146 19.4712C33.0119 17.4459 32.778 14.723 30.9931 13.4012ZM30.007 18.3553C29.122 19.5499 27.6257 19.9461 26.6708 19.2388C25.7167 18.5325 25.6586 16.9861 26.5412 15.7923C27.1279 14.9998 27.9848 14.5589 28.7746 14.5589C29.174 14.5589 29.5563 14.6717 29.8776 14.9092C30.831 15.6163 30.8889 17.1622 30.007 18.3553Z" fill="#181D24"/>
</g>
<defs>
<clipPath id="clip0_14_403">
<rect width="32" height="32" fill="white" transform="translate(0.5)"/>
</clipPath>
</defs>
</svg>
