<svg width="33" height="32" viewBox="0 0 33 32" fill="none" xmlns="http://www.w3.org/2000/svg">
<g clip-path="url(#clip0_14_390)">
<path d="M29.1211 14.6634C28.3475 14.6634 27.6793 14.4173 27.0815 13.925C26.765 13.6788 26.4837 13.3975 26.2024 13.1162C25.9914 12.9052 25.7804 12.7294 25.5343 12.5887C25.0771 12.3074 24.6551 12.3425 24.2332 12.5887C24.0222 12.7294 23.8112 12.87 23.6354 13.0458C23.354 13.3272 23.0376 13.6085 22.7211 13.8546C21.7013 14.6986 20.6112 14.8744 19.3804 14.3821C19.0991 14.2766 18.8529 14.1008 18.642 13.925C18.3255 13.6436 18.009 13.3623 17.6925 13.081C17.5167 12.9052 17.3057 12.7294 17.0947 12.5887C16.6727 12.3074 16.2859 12.2722 15.8288 12.5184C15.4771 12.7294 15.1255 13.0107 14.8442 13.292C14.4573 13.6788 14.0705 14.0305 13.5782 14.2766C12.5584 14.8041 11.5738 14.7689 10.554 14.2414C10.1321 13.9953 9.78042 13.6788 9.42877 13.3272C9.14745 13.0458 8.86613 12.7997 8.54965 12.5887C8.16284 12.3425 7.77602 12.3074 7.35405 12.5184C7.0024 12.6942 6.72108 12.9755 6.43976 13.2217C6.19361 13.4327 5.98262 13.6436 5.73646 13.8546C4.89251 14.5579 3.94306 14.8392 2.85295 14.5579C2.43097 14.4524 2.04416 14.2414 1.69251 13.9953C1.37602 13.7491 1.05954 13.4678 0.778222 13.1865C0.496903 12.87 0.461738 12.448 0.743057 12.1316C1.02438 11.8151 1.48152 11.8151 1.798 12.0964C2.04416 12.3074 2.25514 12.5184 2.46613 12.7294C2.67712 12.9403 2.92328 13.0458 3.16943 13.1162C3.73207 13.2568 4.25954 13.1513 4.71668 12.7294C5.03317 12.4832 5.31449 12.2019 5.5958 11.9557C6.01778 11.5689 6.47493 11.2524 7.0024 11.0414C7.67053 10.7953 8.3035 10.8305 8.93646 11.1118C9.42877 11.3228 9.81559 11.6744 10.1672 12.0261C10.4486 12.2722 10.7299 12.5535 11.0112 12.7997C11.5738 13.2568 12.1716 13.292 12.8046 13.0107C13.2969 12.7645 13.6134 12.3425 14.0002 12.0261C14.4925 11.6392 14.9497 11.2524 15.5475 11.0414C16.2508 10.8305 16.8837 10.8656 17.5167 11.2173C17.9387 11.4283 18.3255 11.7096 18.642 12.0612C18.8881 12.3425 19.2046 12.5887 19.4859 12.8348C20.0486 13.292 20.787 13.3272 21.3848 12.9403C21.7716 12.6942 22.1233 12.3425 22.4398 12.0261C22.8266 11.6744 23.2486 11.3579 23.7057 11.1469C24.5848 10.7601 25.3936 10.8305 26.2024 11.3228C26.6947 11.6392 27.1167 12.0261 27.5387 12.448C27.82 12.7294 28.1365 13.0107 28.5233 13.1162C29.1211 13.2568 29.6486 13.1513 30.1057 12.7294C30.387 12.448 30.7035 12.237 30.9848 11.9557C31.3365 11.6041 31.8288 11.7096 32.0749 11.9909C32.3562 12.3074 32.3211 12.7645 32.0046 13.081C31.653 13.3975 31.3013 13.714 30.9497 13.9953C30.4925 14.4173 29.8595 14.6634 29.1211 14.6634Z" fill="#181D24"/>
<path d="M29.0175 27.569C28.3494 27.569 27.6813 27.3228 27.0835 26.8305C26.767 26.5844 26.4857 26.303 26.2043 26.0217C25.9933 25.8107 25.7824 25.6349 25.5362 25.4942C25.0791 25.2129 24.6571 25.2481 24.2351 25.4942C23.9186 25.6701 23.6725 25.9162 23.4263 26.1624C23.145 26.4437 22.8637 26.6898 22.5472 26.936C21.5977 27.6393 20.5428 27.78 19.4175 27.3228C19.0307 27.1822 18.7494 26.936 18.4329 26.6898C18.0461 26.3382 17.6944 25.9514 17.2725 25.6349C16.7098 25.1778 16.2527 25.1778 15.6549 25.5997C15.1626 25.9162 14.8109 26.3382 14.3889 26.725C13.6857 27.2877 12.912 27.6745 11.9977 27.6041C11.6461 27.569 11.2944 27.4986 10.9428 27.358C10.4153 27.1118 9.95818 26.7602 9.57137 26.3382C9.32521 26.0569 9.00873 25.8459 8.72741 25.5997C8.27027 25.2481 7.77796 25.2129 7.28565 25.5294C6.96917 25.7404 6.65269 25.9866 6.37137 26.2679C5.84389 26.7602 5.31642 27.2173 4.61313 27.4635C4.05049 27.6393 3.48785 27.6393 2.92521 27.5338C2.46807 27.4283 2.04609 27.1822 1.65928 26.9008C1.37796 26.6195 1.09664 26.3734 0.850487 26.092C0.569169 25.8107 0.534004 25.3536 0.815322 25.0371C1.06148 24.7558 1.51862 24.6855 1.8351 24.9668C2.08126 25.1778 2.29225 25.4239 2.5384 25.6349C3.20653 26.2327 4.05049 26.2327 4.75378 25.7052C5.10543 25.4239 5.45708 25.1074 5.77356 24.7909C6.37137 24.2635 7.00433 23.8767 7.81313 23.8063C8.16477 23.7712 8.51642 23.8415 8.83291 23.947C9.39554 24.158 9.85269 24.5096 10.2747 24.9316C10.556 25.1778 10.8021 25.4591 11.1186 25.6701C11.6813 26.1272 12.2791 26.1975 12.9472 25.8811C13.4043 25.6349 13.7208 25.2481 14.1076 24.9316C14.6703 24.4745 15.2329 23.9822 15.9714 23.8415C16.6043 23.7008 17.2021 23.8415 17.7296 24.158C18.1516 24.4041 18.5384 24.7206 18.8549 25.0723C19.101 25.3184 19.3472 25.5294 19.6285 25.7404C20.1911 26.1975 20.8944 26.1975 21.4922 25.8459C21.9142 25.5646 22.2659 25.2129 22.6175 24.8613C23.0395 24.4745 23.4966 24.158 24.0241 23.947C24.7274 23.6657 25.4307 23.736 26.0988 24.1228C26.5208 24.369 26.9076 24.6503 27.2241 24.9668C27.4351 25.1778 27.6461 25.3887 27.8571 25.5646C28.6659 26.2679 29.5098 26.2679 30.3186 25.5646C30.5999 25.3184 30.8813 25.0723 31.1626 24.8261C31.4439 24.58 31.8659 24.58 32.1472 24.8261C32.4285 25.0723 32.4637 25.4591 32.2879 25.7756C32.2175 25.8811 32.1472 25.9514 32.0769 26.0217C31.7955 26.2679 31.5494 26.514 31.2681 26.7602C30.6351 27.2525 29.9318 27.569 29.0175 27.569Z" fill="#181D24"/>
<path d="M29.0856 21.0984C28.312 21.0984 27.6438 20.8523 27.046 20.3248C26.7295 20.0787 26.4482 19.7973 26.1669 19.516C25.9559 19.305 25.7098 19.1292 25.4636 18.9534C25.0416 18.7072 24.6548 18.7776 24.2328 18.9885C23.9867 19.1292 23.7757 19.305 23.5999 19.4809C23.2834 19.7973 22.9669 20.0787 22.6153 20.36C21.6306 21.1336 20.5757 21.2743 19.4153 20.8523C19.0636 20.7116 18.7823 20.5006 18.5361 20.2896C18.079 19.9028 17.6922 19.4457 17.1999 19.094C16.7076 18.7424 16.2504 18.7072 15.7581 19.0237C15.4416 19.2347 15.1251 19.4809 14.879 19.7622C14.457 20.1842 13.9647 20.571 13.4021 20.8171C12.4526 21.2391 11.5032 21.1688 10.5889 20.6765C10.1669 20.4655 9.85042 20.149 9.53394 19.7973C9.25262 19.516 8.9713 19.2699 8.65481 19.0237C8.268 18.7424 7.84602 18.7072 7.38888 18.9534C7.03723 19.1292 6.75591 19.4105 6.4746 19.6567C6.22844 19.8677 5.98229 20.149 5.70097 20.36C4.71635 21.1336 3.62624 21.3094 2.4658 20.8523C1.79767 20.571 1.2702 20.0787 0.777892 19.516C0.531738 19.2347 0.566903 18.7776 0.848222 18.5314C1.12954 18.2501 1.55152 18.2501 1.868 18.4962C2.07899 18.7072 2.28998 18.9182 2.53613 19.1292C3.23943 19.7622 4.18888 19.7622 4.92734 19.094C5.27899 18.7776 5.63064 18.4611 5.98229 18.1798C6.4746 17.7578 7.03723 17.4413 7.6702 17.3358C8.12734 17.2655 8.58448 17.3358 9.04163 17.5116C9.53394 17.7226 9.92075 18.0391 10.2724 18.3907C10.5537 18.6369 10.7999 18.8831 11.0812 19.1292C11.7142 19.727 12.6284 19.727 13.3317 19.1644C13.5427 18.9885 13.7537 18.7776 13.9647 18.6017C14.246 18.3204 14.5625 18.0743 14.9142 17.8281C15.9339 17.16 16.9889 17.0545 18.0438 17.7929C18.3603 18.0039 18.6416 18.2149 18.8878 18.4962C19.1339 18.7776 19.4504 19.0237 19.7317 19.2347C20.2592 19.6567 20.9977 19.6918 21.5955 19.305C21.9823 19.0589 22.2988 18.7424 22.6504 18.4259C23.0372 18.0391 23.4592 17.7578 23.9515 17.5468C24.7955 17.16 25.6394 17.2303 26.4482 17.7578C26.8702 18.0391 27.257 18.3556 27.6087 18.7072C27.8196 18.9534 28.0658 19.1644 28.3471 19.3402C28.9449 19.727 29.7889 19.6918 30.4218 19.094C30.7032 18.8479 30.9845 18.6017 31.2658 18.3204C31.5823 18.0391 32.0746 18.0743 32.3207 18.3556C32.6021 18.6721 32.5669 19.1292 32.2504 19.4457C31.9339 19.7622 31.5823 20.0435 31.2306 20.3248C30.5273 20.8523 29.8592 21.1336 29.0856 21.0984Z" fill="#181D24"/>
<path d="M3.69689 8.19359C2.95843 8.19359 2.2903 7.9826 1.6925 7.52546C1.41118 7.2793 1.12986 7.03315 0.848543 6.75183C0.532059 6.43535 0.532059 5.97821 0.778213 5.69689C1.05953 5.3804 1.51667 5.3804 1.86832 5.66172C2.07931 5.87271 2.2903 6.0837 2.50129 6.25952C3.20459 6.85733 4.01338 6.85733 4.71667 6.29469C5.03316 6.04854 5.34964 5.76722 5.66613 5.4859C6.22876 4.99359 6.82657 4.57161 7.56503 4.46612C8.05733 4.36062 8.54964 4.46612 9.00679 4.67711C9.46393 4.8881 9.81558 5.20458 10.2024 5.52106C10.4485 5.76722 10.7299 5.97821 10.976 6.22436C11.6793 6.89249 12.6288 6.85733 13.3321 6.22436C13.543 6.04854 13.754 5.83755 13.965 5.62656C14.3518 5.31007 14.7387 4.95843 15.1958 4.74744C16.1101 4.29029 17.0244 4.29029 17.9387 4.8881C18.3958 5.20458 18.7826 5.59139 19.2046 5.97821C19.4859 6.22436 19.7672 6.50568 20.154 6.64634C20.7167 6.82216 21.209 6.71667 21.7013 6.36502C22.0529 6.11887 22.3343 5.83755 22.6507 5.52106C23.0727 5.09908 23.565 4.7826 24.1277 4.57161C24.831 4.32546 25.5343 4.36062 26.2024 4.74744C26.6244 4.95843 26.976 5.23974 27.3277 5.59139C27.5387 5.80238 27.7496 6.01337 27.9606 6.18919C28.6991 6.85733 29.5782 6.89249 30.3518 6.25952C30.6332 6.01337 30.9145 5.76722 31.1606 5.52106C31.5123 5.20458 32.0046 5.16941 32.2859 5.52106C32.5672 5.87271 32.5321 6.32985 32.1452 6.64634C31.8639 6.89249 31.5826 7.13865 31.3013 7.3848C30.0705 8.47491 28.2419 8.43974 27.1167 7.41996C26.8002 7.13865 26.5189 6.89249 26.2376 6.61117C26.0266 6.40018 25.7804 6.22436 25.5343 6.0837C25.1123 5.83755 24.7255 5.90788 24.3387 6.15403C24.1277 6.29469 23.9167 6.43535 23.7408 6.61117C23.4244 6.92766 23.0727 7.20897 22.7211 7.49029C21.7365 8.26392 20.6463 8.43974 19.4859 7.9826C19.1343 7.84194 18.8178 7.63095 18.5716 7.3848C18.22 7.06832 17.9035 6.75183 17.5518 6.43535C17.3409 6.25952 17.0947 6.0837 16.8134 5.97821C16.4969 5.87271 16.2156 5.94304 15.9343 6.0837C15.5826 6.25952 15.3013 6.50568 15.02 6.787C14.6332 7.20897 14.176 7.56062 13.6837 7.84194C12.6639 8.36941 11.6793 8.33425 10.6595 7.80678C10.2376 7.59579 9.92107 7.2793 9.56942 6.92766C9.2881 6.64634 8.97162 6.40018 8.65514 6.15403C8.23316 5.83755 7.81118 5.83755 7.35404 6.0837C7.00239 6.29469 6.72107 6.57601 6.43975 6.82216C6.22876 6.99799 6.01777 7.24414 5.77162 7.41996C5.13865 7.91227 4.47052 8.22875 3.69689 8.19359Z" fill="#181D24"/>
</g>
<defs>
<clipPath id="clip0_14_390">
<rect width="32" height="32" fill="white" transform="translate(0.5)"/>
</clipPath>
</defs>
</svg>
