<svg width="32" height="35" viewBox="0 0 32 35" fill="none" xmlns="http://www.w3.org/2000/svg">
<g id="Frame">
<path id="Vector" fill-rule="evenodd" clip-rule="evenodd" d="M21.3333 13.125C21.3333 16.3466 18.9455 18.9583 16 18.9583C13.0545 18.9583 10.6667 16.3466 10.6667 13.125C10.6667 9.90333 13.0545 7.29166 16 7.29166C18.9455 7.29166 21.3333 9.90333 21.3333 13.125ZM18.6667 13.125C18.6667 14.7359 17.4728 16.0417 16 16.0417C14.5272 16.0417 13.3333 14.7359 13.3333 13.125C13.3333 11.5142 14.5272 10.2083 16 10.2083C17.4728 10.2083 18.6667 11.5142 18.6667 13.125Z" fill="black"/>
<path id="Vector_2" fill-rule="evenodd" clip-rule="evenodd" d="M16 1.45834C7.89984 1.45834 1.33334 8.64045 1.33334 17.5C1.33334 26.3595 7.89984 33.5417 16 33.5417C24.1001 33.5417 30.6667 26.3595 30.6667 17.5C30.6667 8.64045 24.1001 1.45834 16 1.45834ZM4.00001 17.5C4.00001 20.5482 4.95008 23.3538 6.54398 25.5817C8.73661 22.4422 12.195 20.4167 16.086 20.4167C19.9264 20.4167 23.3456 22.3899 25.542 25.46C27.084 23.2521 28 20.4931 28 17.5C28 10.2513 22.6275 4.37501 16 4.37501C9.3726 4.37501 4.00001 10.2513 4.00001 17.5ZM16 30.625C13.133 30.625 10.5009 29.5253 8.4369 27.6906C10.1247 25.0559 12.9214 23.3333 16.086 23.3333C19.2112 23.3333 21.9777 25.0135 23.6717 27.593C21.5919 29.4862 18.9175 30.625 16 30.625Z" fill="black"/>
</g>
</svg>
