<svg width="13" height="16" viewBox="0 0 13 16" fill="none" xmlns="http://www.w3.org/2000/svg">
<path id="Vector" d="M6.06733 0.212444C6.18658 0.0755867 6.34052 0 6.5 0C6.65948 0 6.81342 0.0755867 6.93267 0.212444L12.7972 6.94955C12.9198 7.10005 12.9923 7.30625 12.9994 7.52458C13.0066 7.7429 12.9477 7.95627 12.8354 8.1196C12.7231 8.28292 12.566 8.38342 12.3974 8.39986C12.2288 8.4163 12.0619 8.34739 11.9318 8.2077L11.7129 7.95758V14.3157C11.7129 14.7624 11.5756 15.1908 11.3312 15.5067C11.0868 15.8225 10.7553 16 10.4097 16H2.59033C2.24469 16 1.91321 15.8225 1.66881 15.5067C1.42441 15.1908 1.28711 14.7624 1.28711 14.3157V7.95758L1.06817 8.2077C0.938143 8.34739 0.771195 8.4163 0.602589 8.39986C0.433984 8.38342 0.276925 8.28292 0.164592 8.1196C0.0522579 7.95627 -0.00655363 7.7429 0.000580877 7.52458C0.00771538 7.30625 0.0802372 7.10005 0.202826 6.94955L6.06733 0.212444ZM2.59033 6.45858V14.3157H4.54517V10.105C4.54517 9.88169 4.61382 9.66749 4.73602 9.50955C4.85822 9.35162 5.02396 9.2629 5.19678 9.2629H7.80322C7.97604 9.2629 8.14178 9.35162 8.26398 9.50955C8.38618 9.66749 8.45483 9.88169 8.45483 10.105V14.3157H10.4097V6.45942L6.5 1.9683L2.59033 6.45858ZM7.15161 14.3157V10.9472H5.84839V14.3157H7.15161Z" fill="#0D0D0D" fill-opacity="0.65"/>
</svg>
